# xmcd CD database file
# Copyright (C) 1996 Ti Kan
#
# Track frame offsets:
#  150
#  19948
#  38988
#  51435
#  64600
#  78990
#  96525
#  112065
#  129963
#  144998
#  157890
#  173780
#  179025
#  191630
#
# Disc length: 2728 seconds
#
# Revision: 1
# Processed by: cddbd v1.4b41PL1 Copyright (c) Steve Scherf et al.
# Submitted via: CDWizzard Release:4.12
#
DISCID=c40aa60e
DTITLE=Professor Longhair - The Complete London Concert
DYEAR=1900
DGENRE=
TTITLE0=Mess Around
TTITLE1=Hey Now Baby
TTITLE2=Whole Lot Of Loving
TTITLE3=Go To The Mardi Gras
TTITLE4=Baldhead
TTITLE5=Tipitina
TTITLE6=Big Chief
TTITLE7=Everyday I Have The Blues
TTITLE8=Hey Little Girl
TTITLE9=Lovely Lady
TTITLE10=Medley
TTITLE11=Rockin' Pneumonia
TTITLE12=Rockin' With Fess
TTITLE13=P. L. Boogie
EXTD=JSP CD 202\n\nProfessor Longhair:  vocals and piano\nAlfred Roberts:
EXTD=conga drums\n\nRecorded at the New London Theatre, Drury Lane, Lon
EXTD=don. 26th March 1978\n\n[Submitted 5/29/97 - J. Rockwall]
EXTT0=
EXTT1=
EXTT2=
EXTT3=
EXTT4=
EXTT5=
EXTT6=
EXTT7=
EXTT8=
EXTT9=
EXTT10=
EXTT11=
EXTT12=
EXTT13=
PLAYORDER=
